<?xml version="1.0" standalone="no"?>
<!DOCTYPE svg PUBLIC "-//W3C//DTD SVG 20010904//EN"
 "http://www.w3.org/TR/2001/REC-SVG-20010904/DTD/svg10.dtd">
<svg version="1.0" xmlns="http://www.w3.org/2000/svg"
 width="612.000000pt" height="612.000000pt" viewBox="0 0 612.000000 612.000000"
 preserveAspectRatio="xMidYMid meet">

<g transform="translate(0.000000,612.000000) scale(0.100000,-0.100000)"
fill="#000000" stroke="none">
<path d="M2810 5658 c0 -6 26 -52 59 -102 76 -119 85 -136 70 -136 -12 0 -95
41 -169 84 -25 14 -51 26 -57 26 -10 0 -13 -54 -13 -235 0 -167 3 -235 11
-235 6 0 37 15 68 34 59 35 156 86 166 86 9 0 -42 -95 -90 -165 -50 -72 -52
-95 -8 -95 l28 0 -37 -25 c-48 -32 -113 -131 -128 -196 -20 -83 -8 -177 34
-256 33 -61 35 -70 25 -104 -11 -36 -13 -37 -48 -32 -20 3 -37 7 -38 7 -1 1 2
19 8 40 20 73 -45 152 -125 150 -67 -1 -126 -56 -126 -116 0 -28 -6 -33 -34
-22 -11 4 -13 11 -5 31 22 59 -1 131 -53 159 -13 8 -44 13 -69 14 -38 0 -53
-5 -78 -29 -17 -16 -34 -43 -37 -61 -5 -24 -11 -30 -28 -28 -19 3 -21 8 -18
55 6 88 -42 143 -124 143 -64 0 -124 -51 -124 -105 0 -10 -7 -15 -17 -13 -14
2 -17 12 -15 48 4 60 -28 110 -84 129 -49 17 -84 10 -126 -28 -23 -20 -33 -39
-37 -72 -8 -55 -34 -62 -39 -9 -8 79 -91 135 -164 111 -19 -6 -46 -23 -59 -37
-20 -22 -24 -36 -24 -90 0 -80 -17 -90 -44 -28 -31 70 -112 95 -178 54 -61
-37 -79 -106 -43 -172 27 -52 5 -55 -42 -6 -34 34 -43 38 -88 38 -43 0 -55 -5
-88 -34 -34 -32 -37 -39 -37 -90 0 -49 4 -59 33 -89 27 -28 30 -36 19 -45 -10
-9 -23 -6 -55 9 -65 32 -132 7 -168 -63 -31 -60 6 -146 72 -168 47 -16 43 -44
-6 -46 -19 -1 -46 -2 -59 -3 -31 -1 -86 -61 -95 -101 -14 -73 53 -150 131
-150 21 0 29 -5 30 -19 1 -14 -7 -20 -37 -24 -66 -9 -120 -67 -120 -129 0 -68
74 -133 142 -125 29 4 37 1 41 -14 6 -22 3 -24 -41 -34 -43 -9 -84 -63 -84
-110 0 -85 56 -140 137 -133 45 3 55 -4 55 -39 0 -8 -9 -26 -19 -39 -16 -20
-18 -30 -9 -54 5 -16 17 -32 26 -35 12 -3 26 -40 48 -122 l31 -117 -19 -44
c-41 -92 14 -237 105 -277 22 -9 38 -33 72 -110 30 -66 43 -106 39 -122 -8
-32 19 -71 53 -75 25 -3 30 -10 52 -85 23 -77 23 -84 8 -101 -27 -29 -22 -80
11 -110 17 -16 33 -46 40 -72 9 -39 8 -55 -8 -108 l-20 -63 39 -52 c25 -33 45
-75 55 -114 16 -61 16 -63 -4 -83 -21 -21 -26 -60 -10 -89 7 -15 2 -23 -27
-42 -61 -40 -78 -72 -78 -142 1 -71 48 -194 94 -245 41 -46 77 -59 211 -76
347 -44 866 -66 1585 -66 733 0 1217 20 1595 66 95 11 134 21 166 39 49 29 64
50 111 158 29 68 34 91 31 135 -5 59 -27 96 -76 127 -21 13 -29 25 -25 35 17
42 14 76 -9 101 -23 25 -24 28 -11 84 9 39 27 77 53 111 l40 53 -20 63 c-16
53 -17 69 -8 108 7 26 23 56 40 72 32 30 38 81 11 110 -15 17 -14 23 8 100 23
76 27 83 57 90 35 9 54 41 46 74 -3 11 16 64 40 119 37 80 51 102 74 112 43
18 89 76 107 135 19 66 19 94 -3 143 -18 40 -18 41 12 158 22 82 36 119 48
123 9 2 21 18 26 34 9 24 7 34 -9 54 -38 49 -23 82 35 78 88 -7 142 50 134
140 -6 58 -27 83 -84 103 -21 7 -38 16 -36 19 1 3 2 12 2 19 0 8 17 12 49 12
159 0 175 221 18 252 -55 11 -57 36 -2 44 22 3 51 11 63 18 33 18 65 94 57
132 -15 68 -91 117 -154 99 -23 -6 -31 -5 -35 7 -10 26 -7 31 29 43 103 34
110 182 10 230 -51 25 -61 25 -110 0 -34 -17 -41 -18 -53 -6 -12 12 -10 18 19
44 31 28 34 35 34 87 0 53 -3 59 -37 91 -32 29 -45 34 -88 34 -45 0 -54 -4
-88 -38 -48 -48 -69 -45 -42 6 11 20 20 51 20 68 0 37 -36 94 -70 111 -64 33
-147 1 -174 -67 -10 -27 -20 -38 -30 -34 -11 4 -13 19 -9 62 5 52 3 61 -21 89
-69 82 -205 54 -221 -45 -10 -56 -13 -62 -30 -56 -9 4 -15 19 -15 41 0 26 -8
43 -33 68 -87 87 -222 27 -215 -95 2 -36 -1 -46 -15 -48 -10 -2 -17 3 -17 13
0 54 -60 105 -125 105 -82 0 -129 -55 -123 -144 3 -46 1 -51 -19 -54 -18 -3
-23 1 -23 20 0 52 -60 98 -127 98 -91 -1 -147 -86 -114 -173 8 -20 6 -27 -5
-31 -27 -11 -34 -7 -34 20 0 67 -85 133 -152 119 -69 -16 -121 -100 -98 -160
12 -33 14 -31 -30 -38 -34 -5 -36 -3 -47 33 -11 35 -10 42 24 105 29 55 37 83
41 140 8 123 -44 243 -131 306 -39 28 -39 29 -13 29 43 0 41 23 -9 95 -53 77
-99 165 -87 165 4 0 56 -27 116 -60 59 -33 112 -58 117 -55 5 4 9 107 9 236 0
256 2 249 -68 205 -62 -39 -164 -88 -170 -82 -7 7 26 68 85 156 24 36 43 70
43 77 0 10 -56 13 -250 13 -183 0 -250 -3 -250 -12z m430 -32 c0 -2 -20 -37
-45 -77 -24 -40 -50 -88 -56 -106 -9 -29 -14 -33 -32 -26 -28 9 -55 9 -89 0
-24 -6 -28 -3 -37 26 -6 19 -32 66 -56 106 -25 40 -45 75 -45 77 0 2 81 4 180
4 99 0 180 -2 180 -4z m-304 -316 c0 -30 3 -63 8 -72 5 -12 4 -18 -4 -18 -6 0
-52 -20 -101 -45 -49 -25 -92 -45 -94 -45 -3 0 -5 76 -5 168 l0 169 99 -51 99
-50 -2 -56z m444 -15 c0 -91 -2 -165 -5 -165 -3 0 -45 20 -93 45 -48 25 -93
45 -101 45 -8 0 -11 6 -6 18 13 33 16 77 8 101 -9 22 -4 27 81 71 50 26 97 48
104 48 9 2 12 -37 12 -163z m-268 65 c32 -24 39 -59 22 -99 -24 -56 -108 -65
-141 -15 -53 82 43 174 119 114z m30 -215 c6 -16 31 -63 54 -102 24 -40 39
-75 35 -77 -10 -6 -351 -5 -351 2 0 2 17 32 38 66 21 34 46 79 55 101 l18 40
69 0 c68 0 70 -1 82 -30z m-162 -335 l0 -110 -110 0 c-84 0 -110 3 -110 13 0
19 53 99 86 132 22 21 116 74 132 75 1 0 2 -49 2 -110z m130 -25 l0 -134 133
-3 132 -3 0 -35 0 -35 -315 0 -315 0 -3 37 -3 37 143 3 143 3 3 133 3 132 39
0 40 0 0 -135z m93 108 c18 -9 45 -25 60 -37 30 -22 97 -121 97 -143 0 -10
-26 -13 -105 -13 l-105 0 0 105 c0 67 4 105 10 105 6 0 25 -7 43 -17z m-1718
-248 c32 -31 32 -75 1 -111 -49 -58 -146 -20 -146 57 0 70 94 106 145 54z
m291 4 c11 -13 19 -35 19 -60 0 -51 -29 -81 -80 -82 -71 -2 -109 79 -64 137
27 34 96 37 125 5z m2693 -5 c56 -71 -12 -164 -94 -130 -42 18 -59 48 -51 92
8 41 39 64 87 64 29 0 43 -6 58 -26z m286 1 c32 -31 32 -75 1 -111 -49 -58
-146 -20 -146 57 0 70 94 106 145 54z m-2700 -61 c34 -37 33 -78 -4 -115 -39
-38 -74 -38 -113 1 -26 27 -30 36 -25 68 12 72 94 98 142 46z m2125 6 c57 -57
19 -150 -61 -150 -27 0 -79 53 -79 80 0 26 25 77 42 83 31 13 79 6 98 -13z
m-2997 -12 c78 -41 52 -159 -35 -158 -37 1 -59 14 -76 47 -19 35 -14 63 17 94
31 31 59 36 94 17z m3848 -14 c37 -34 32 -99 -10 -131 -49 -38 -131 6 -131 70
0 74 85 111 141 61z m-2691 -54 c44 -44 34 -108 -21 -139 -51 -29 -119 14
-119 76 0 70 92 111 140 63z m1020 2 c0 -4 -14 -31 -30 -59 -20 -35 -37 -53
-49 -53 -11 0 -33 -11 -49 -25 -17 -14 -32 -25 -36 -25 -3 0 -13 14 -21 30
-47 91 -183 91 -230 0 -8 -16 -18 -30 -21 -30 -4 0 -19 11 -36 25 -16 14 -38
25 -49 25 -19 0 -59 54 -73 97 -5 16 -2 22 10 25 34 6 584 -3 584 -10z m535
-7 c54 -54 13 -145 -65 -145 -27 0 -80 52 -80 79 0 78 92 120 145 66z m-2272
-6 c46 -44 103 -50 156 -18 42 25 87 18 103 -17 25 -55 117 -81 177 -50 24 13
32 12 68 -4 23 -10 46 -28 52 -39 23 -43 114 -66 161 -41 26 14 106 -12 142
-47 32 -30 65 -34 175 -18 29 4 63 5 77 1 25 -6 26 -10 26 -77 l0 -71 -62 7
c-174 18 -308 50 -618 150 -247 79 -367 105 -492 105 -145 0 -273 -38 -421
-123 -289 -167 -362 -466 -241 -1002 42 -187 42 -171 -3 -178 -21 -4 -52 -9
-69 -13 -31 -6 -32 -5 -39 35 -5 29 -2 46 9 63 34 48 7 157 -43 173 -32 10
-38 65 -12 118 12 24 21 54 21 66 0 30 -29 91 -47 98 -22 9 -17 93 8 119 29
31 36 101 15 143 -25 47 -13 95 31 121 42 25 67 80 59 130 -4 29 -1 41 20 63
15 16 35 27 51 27 40 0 90 44 104 91 15 48 37 62 106 64 59 3 97 23 121 65 23
39 71 55 108 35 51 -26 118 -13 153 29 19 23 77 20 104 -5z m2978 5 c34 -42
99 -55 148 -29 39 20 91 5 113 -34 24 -43 62 -63 121 -66 68 -2 91 -16 105
-63 15 -51 51 -82 101 -89 52 -7 81 -48 74 -104 -6 -46 18 -95 58 -117 43 -25
56 -73 34 -123 -22 -48 -15 -112 15 -144 30 -32 30 -95 0 -125 -44 -44 -50
-93 -19 -157 26 -53 20 -108 -12 -118 -51 -16 -76 -119 -43 -175 12 -20 15
-38 10 -65 -7 -36 -9 -37 -39 -31 -18 4 -49 9 -69 13 -21 3 -38 11 -38 18 0 7
11 60 24 117 63 265 81 495 52 648 -17 92 -66 202 -116 262 -61 73 -209 169
-335 216 -121 46 -289 54 -448 21 -56 -11 -183 -47 -282 -79 -299 -97 -470
-139 -627 -155 l-68 -7 0 71 c0 67 1 71 25 77 24 6 80 2 142 -11 43 -9 75 -1
112 31 36 30 122 56 142 43 42 -26 155 7 166 50 2 9 25 25 50 34 40 15 47 15
66 2 26 -18 90 -20 120 -3 27 14 41 28 55 55 18 32 63 38 103 14 19 -12 48
-21 64 -21 34 0 86 24 98 46 11 19 81 18 98 -2z m-1976 -69 c46 -45 24 -125
-40 -141 -53 -13 -114 48 -101 102 17 64 95 86 141 39z m970 19 c25 -10 47
-62 40 -94 -21 -94 -165 -79 -165 17 0 61 64 100 125 77z m-2630 -49 c52 -51
16 -145 -54 -145 -39 0 -79 36 -87 77 -5 27 -1 37 24 63 39 38 83 40 117 5z
m4301 1 c58 -49 20 -146 -57 -146 -43 0 -79 39 -79 85 0 74 80 110 136 61z
m-2171 -6 c30 -11 54 -60 47 -96 -10 -54 -84 -81 -130 -48 -35 24 -44 59 -27
100 19 47 60 63 110 44z m-235 -590 l0 -540 -25 0 -25 0 0 533 c0 294 3 537 7
540 3 4 15 7 25 7 17 0 18 -23 18 -540z m448 -2 l2 -538 -25 0 c-16 0 -25 6
-25 15 0 8 0 242 0 520 0 278 0 514 0 526 0 15 5 20 23 17 l22 -3 3 -537z
m-1468 498 c52 -14 186 -54 296 -90 223 -71 380 -109 527 -127 l97 -12 0 -215
c0 -200 -1 -214 -17 -207 -154 62 -336 98 -503 99 -226 0 -361 -52 -500 -193
-47 -47 -92 -100 -99 -117 -12 -31 -15 -32 -89 -38 -215 -19 -403 -117 -503
-263 -16 -23 -34 -43 -39 -43 -9 0 -50 169 -76 310 -22 122 -29 340 -15 425
30 171 118 298 269 388 88 52 132 70 237 98 101 27 285 20 415 -15z m2880 11
c254 -83 403 -211 461 -396 29 -93 36 -281 15 -428 -16 -115 -72 -383 -82
-393 -4 -3 -18 11 -32 30 -121 163 -294 257 -510 275 l-78 7 -27 48 c-37 66
-127 153 -206 200 -163 96 -355 120 -606 75 -69 -13 -223 -57 -277 -80 -17 -7
-18 7 -18 208 l0 214 93 11 c135 15 307 56 512 122 248 80 319 100 400 116 87
17 292 11 355 -9z m-1785 -27 c22 -69 106 -112 167 -87 38 17 73 52 83 85 21
69 25 -14 25 -498 0 -504 -1 -520 -19 -520 -10 0 -21 7 -25 15 -10 27 -69 55
-115 55 -36 0 -49 -6 -78 -35 -66 -66 -63 -90 -63 485 0 481 4 565 25 500z
m-2148 -122 c30 -34 34 -55 19 -92 -28 -68 -123 -69 -151 -3 -15 36 -5 82 22
103 29 22 86 17 110 -8z m4660 0 c28 -32 34 -66 18 -98 -33 -64 -124 -60 -151
6 -24 57 15 114 76 114 25 0 43 -7 57 -22z m-4739 -288 c45 -42 34 -112 -21
-138 -83 -40 -158 68 -92 133 30 31 82 33 113 5z m4817 -5 c37 -36 34 -86 -7
-120 -38 -32 -81 -29 -115 11 -70 78 48 184 122 109z m-4808 -297 c16 -15 23
-33 23 -57 -1 -44 -18 -68 -58 -82 -84 -29 -146 94 -75 149 27 20 84 15 110
-10z m4795 8 c76 -57 8 -176 -82 -144 -84 29 -60 158 29 158 20 0 44 -6 53
-14z m-4738 -307 c34 -40 33 -74 -3 -110 -33 -32 -58 -36 -100 -14 -75 38 -43
155 43 155 26 0 40 -7 60 -31z m4691 6 c54 -54 13 -145 -65 -145 -27 0 -80 52
-80 79 0 78 92 120 145 66z m-2351 -5 c7 -7 -11 -10 -52 -10 -66 0 -76 5 -39
20 25 11 76 5 91 -10z m276 -71 c0 -6 -25 -49 -56 -95 -60 -91 -138 -234 -130
-241 7 -7 161 68 239 115 37 23 74 42 82 42 13 0 15 -42 15 -304 0 -194 -4
-307 -10 -311 -6 -3 -48 17 -95 45 -97 58 -214 114 -223 105 -9 -9 44 -111
115 -219 35 -54 62 -105 59 -112 -8 -21 -644 -21 -652 0 -3 7 25 60 63 117 70
108 121 205 111 215 -9 8 -130 -49 -225 -107 -46 -27 -88 -47 -93 -44 -6 4
-10 124 -10 311 0 251 2 304 14 304 7 0 47 -20 88 -45 41 -24 109 -60 152 -80
l78 -36 -7 28 c-9 38 -89 179 -136 242 -22 28 -39 58 -39 66 0 13 45 15 330
15 232 0 330 -3 330 -11z m-1371 -63 c80 -74 160 -233 161 -317 l0 -36 56 -6
c213 -22 264 -331 71 -429 -15 -7 -35 -29 -45 -48 -33 -64 -54 -72 -234 -85
-97 -7 -176 -8 -195 -3 -29 8 -83 58 -83 78 0 5 -13 11 -29 15 -49 10 -107 59
-131 111 -65 134 3 300 131 322 l44 7 7 80 c4 44 14 102 22 129 20 62 77 165
108 192 44 40 64 38 117 -10z m2228 -24 c62 -91 103 -214 103 -309 0 -57 0
-57 63 -68 55 -9 112 -69 133 -141 33 -113 -14 -222 -118 -278 -31 -17 -67
-44 -79 -60 -40 -51 -64 -55 -252 -41 -186 14 -206 21 -239 85 -10 19 -33 42
-52 52 -61 31 -115 121 -116 194 0 55 31 133 71 174 38 39 88 60 145 60 31 0
32 1 38 59 12 108 132 305 200 331 34 12 69 -7 103 -58z m-3085 -53 c2 -6 -6
-50 -18 -97 -26 -102 -44 -231 -33 -238 8 -4 86 86 141 162 18 26 38 43 47 42
12 -2 34 -73 83 -258 37 -140 67 -263 67 -272 1 -26 -13 -29 -60 -12 -57 20
-202 55 -207 49 -8 -7 57 -91 132 -170 42 -44 76 -83 76 -87 0 -17 -278 -84
-291 -71 -14 14 16 43 44 44 12 0 57 10 101 22 l78 22 -56 60 c-66 71 -158
203 -150 216 11 19 123 6 227 -28 27 -8 50 -13 52 -11 5 4 -100 416 -107 423
-2 3 -20 -17 -40 -43 -20 -26 -63 -75 -96 -110 -68 -70 -92 -74 -92 -15 0 51
28 234 44 288 8 25 11 45 8 45 -4 0 -72 -14 -152 -30 -171 -35 -170 -35 -170
-11 0 15 22 23 158 50 86 18 162 34 167 36 21 7 43 5 47 -6z m3988 -24 c95
-19 175 -35 177 -35 2 0 3 -9 3 -20 0 -26 -3 -26 -171 10 -78 17 -144 29 -146
26 -2 -2 5 -48 16 -102 30 -146 38 -259 19 -267 -22 -8 -72 37 -148 131 -35
44 -66 79 -68 77 -3 -3 -112 -414 -112 -424 0 -2 10 0 23 3 171 50 257 59 257
28 0 -28 -60 -111 -169 -232 l-32 -35 23 -7 c13 -3 62 -16 111 -29 70 -18 87
-26 87 -41 0 -23 -2 -23 -123 7 -128 32 -167 45 -167 53 0 4 34 43 76 87 75
78 140 162 132 170 -5 6 -151 -29 -207 -50 -30 -10 -48 -12 -55 -5 -6 6 3 59
28 157 88 345 101 388 117 391 11 2 33 -20 62 -60 58 -80 123 -155 130 -148 8
7 -19 174 -41 255 -18 68 -19 95 -3 95 4 0 86 -16 181 -35z m-4107 -137 c-20
-96 -28 -240 -14 -266 30 -57 95 -31 185 73 l55 66 10 -38 c41 -157 60 -237
58 -239 -1 -1 -29 3 -62 11 -125 27 -154 27 -181 0 -13 -13 -24 -32 -24 -42 0
-22 65 -123 119 -185 23 -25 41 -51 41 -56 0 -6 -26 -16 -57 -22 -32 -7 -62
-14 -66 -17 -4 -2 -25 34 -47 81 -34 73 -38 91 -33 133 3 27 0 75 -7 106 -14
71 -75 194 -99 202 -12 3 -27 33 -44 88 -44 133 -46 128 48 148 44 9 92 17
106 18 l26 1 -14 -62z m4129 47 c108 -23 110 -24 103 -48 -29 -109 -61 -187
-77 -193 -10 -3 -32 -32 -49 -65 -42 -83 -63 -172 -56 -237 5 -48 1 -64 -33
-138 -21 -46 -40 -84 -43 -84 -4 0 -104 28 -125 36 -9 3 2 21 34 57 57 64 111
143 119 178 4 17 0 33 -13 49 -17 21 -27 24 -73 22 -30 -1 -81 -9 -114 -16
-33 -8 -61 -14 -62 -12 -2 2 55 233 63 256 4 11 20 -1 57 -42 61 -67 113 -108
139 -108 10 0 28 10 39 21 20 20 21 29 16 118 -4 53 -13 124 -20 159 -16 73
-20 71 95 47z m-4232 -348 c26 -55 50 -143 50 -183 0 -41 -82 17 -105 73 -26
62 -16 173 16 173 5 0 23 -28 39 -63z m4300 37 c16 -41 11 -112 -10 -153 -30
-59 -100 -106 -100 -67 0 67 65 246 90 246 6 0 15 -12 20 -26z m-2956 -449
c64 -19 231 -19 332 0 67 13 80 13 94 0 8 -8 41 -15 75 -17 l60 -3 -57 -22
c-147 -58 -409 -77 -533 -39 -70 21 -145 56 -145 68 0 4 17 8 38 9 20 0 46 4
57 9 27 12 24 12 79 -5z m1246 -6 c84 -14 239 -11 304 6 40 11 63 12 76 5 10
-5 37 -10 59 -10 23 0 41 -4 41 -9 0 -10 -98 -54 -160 -72 -112 -32 -382 -9
-518 44 l-57 22 62 3 c40 2 66 8 74 18 8 10 21 13 38 9 14 -4 51 -11 81 -16z
m-1437 -44 c108 -72 255 -100 437 -84 133 11 245 39 336 84 71 34 74 35 198
35 121 0 128 -1 179 -29 28 -17 93 -42 142 -57 82 -25 105 -27 270 -28 161 -1
188 1 251 21 40 13 95 39 124 58 29 19 59 35 68 35 8 0 38 -22 67 -49 91 -86
213 -135 370 -150 141 -13 243 6 339 64 33 19 61 34 63 31 2 -2 -6 -39 -18
-81 l-23 -77 -45 5 c-25 3 -107 15 -181 26 -473 70 -964 101 -1613 101 -641 0
-1134 -31 -1602 -100 -77 -11 -161 -23 -186 -27 l-45 -5 -23 77 c-12 42 -20
79 -17 82 3 3 18 -4 35 -16 198 -141 573 -100 750 83 19 20 43 36 53 36 10 0
42 -16 71 -35z m-183 -5 c-94 -80 -234 -124 -395 -123 -115 0 -175 14 -244 56
l-34 20 49 15 c39 12 60 12 105 3 117 -24 301 -3 386 43 17 9 55 15 98 15 l70
0 -35 -29z m2490 -5 c91 -33 217 -44 314 -25 51 10 76 10 116 0 60 -14 56 -26
-20 -59 -156 -67 -404 -41 -558 59 -88 56 -88 62 -1 57 46 -3 103 -15 149 -32z
m-550 -150 c375 -25 707 -61 1015 -111 48 -8 65 -20 65 -46 0 -28 -22 -32
-108 -19 -535 82 -958 116 -1561 127 -629 12 -1260 -25 -1829 -107 -117 -17
-220 -28 -228 -25 -20 8 -18 43 4 55 52 28 587 94 977 121 465 32 1222 35
1665 5z m-205 -105 c264 -13 449 -27 680 -51 194 -20 526 -67 534 -75 6 -6 11
-3 -142 -88 -121 -69 -136 -80 -125 -94 7 -9 54 -63 104 -120 67 -76 90 -109
87 -123 -4 -16 -12 -19 -32 -15 -89 18 -466 56 -756 76 -606 41 -1370 37
-2000 -10 -173 -13 -500 -47 -580 -60 -77 -13 -72 -13 -78 10 -4 14 22 50 99
137 96 108 103 119 87 131 -10 7 -73 43 -140 80 -68 36 -123 69 -123 73 0 18
518 83 875 109 390 29 1121 39 1510 20z m-2205 -339 c-67 -82 -120 -135 -120
-122 0 7 28 44 61 82 34 39 60 71 58 73 -2 2 -40 24 -84 48 -43 25 -81 50 -83
56 -2 6 42 -14 97 -45 l101 -55 -30 -37z m3406 130 c-4 -5 -41 -28 -84 -51
-42 -24 -79 -44 -81 -46 -2 -2 25 -35 59 -73 34 -38 60 -75 58 -82 -4 -11
-145 146 -141 157 2 8 174 103 186 104 5 0 6 -4 3 -9z m-1126 -311 c365 -17
831 -58 1024 -90 56 -9 86 -23 86 -41 0 -18 -34 -40 -54 -35 -51 12 -518 67
-696 81 -606 47 -1460 47 -2045 -1 -172 -14 -629 -67 -682 -79 -23 -5 -56 20
-50 39 2 6 14 16 28 23 50 25 649 82 1054 102 251 12 1087 12 1335 1z m-235
-100 c528 -16 902 -48 1211 -105 143 -27 173 -38 199 -79 33 -50 30 -87 -15
-190 -52 -119 -70 -134 -190 -151 -115 -18 -400 -42 -675 -57 -296 -17 -1614
-17 -1910 0 -475 27 -742 56 -790 88 -33 21 -105 165 -112 223 -5 42 20 96 57
122 28 20 122 41 314 69 495 73 1184 102 1911 80z"/>
<path d="M2975 4137 c-60 -60 -59 -134 1 -186 29 -26 43 -31 85 -31 44 0 55 4
84 33 60 60 59 134 -1 186 -29 26 -43 31 -85 31 -44 0 -55 -4 -84 -33z m139
-29 c56 -51 21 -148 -54 -148 -73 0 -111 104 -54 149 35 27 77 27 108 -1z"/>
<path d="M3001 3882 c-37 -20 -71 -73 -71 -110 0 -69 62 -132 130 -132 67 0
130 63 130 131 0 32 -29 86 -55 103 -40 26 -96 29 -134 8z m116 -54 c30 -34
34 -55 19 -92 -18 -44 -64 -63 -107 -45 -35 14 -63 66 -52 96 13 38 46 63 83
63 25 0 43 -7 57 -22z"/>
<path d="M3001 3603 c-37 -20 -71 -73 -71 -113 0 -39 33 -91 71 -112 68 -38
158 -1 181 73 32 110 -81 205 -181 152z m93 -37 c56 -24 67 -94 21 -139 -20
-20 -83 -22 -107 -3 -47 35 -38 118 15 141 40 18 32 17 71 1z"/>
<path d="M2800 3175 c0 -2 20 -36 46 -75 25 -38 61 -104 81 -146 30 -63 34
-81 27 -102 -8 -21 -16 -26 -34 -24 -29 3 -218 92 -259 122 -16 11 -32 20 -35
20 -3 0 -6 -110 -6 -245 0 -135 1 -245 3 -245 1 0 64 32 141 70 153 77 182 84
192 44 7 -28 -55 -164 -120 -262 -20 -30 -36 -58 -36 -63 0 -5 110 -9 260 -9
176 0 260 3 260 11 0 5 -17 36 -39 67 -45 67 -121 215 -121 237 0 8 5 24 12
34 11 19 13 19 62 -1 28 -10 97 -44 153 -74 56 -30 105 -54 108 -54 3 0 5 110
5 245 0 135 -2 245 -5 245 -3 0 -26 -13 -52 -29 -69 -43 -214 -110 -242 -113
-19 -2 -27 3 -35 24 -7 21 -3 39 27 102 20 42 56 108 81 146 26 39 46 73 46
75 0 3 -117 5 -260 5 -143 0 -260 -2 -260 -5z m440 -41 c0 -3 -18 -36 -39 -72
-22 -37 -49 -90 -61 -118 -21 -52 -22 -52 -55 -43 -20 6 -42 6 -58 0 -23 -9
-26 -7 -38 22 -6 18 -34 71 -61 118 -26 48 -48 89 -48 93 0 3 81 6 180 6 99 0
180 -3 180 -6z m-508 -273 c29 -16 83 -41 121 -56 l67 -27 0 -58 c0 -54 -2
-58 -27 -65 -14 -3 -71 -28 -126 -56 -55 -27 -102 -49 -103 -49 -2 0 -4 77 -4
170 0 99 4 170 9 170 6 0 34 -13 63 -29z m728 -141 c0 -93 -2 -170 -4 -170 -2
0 -43 20 -92 45 -49 25 -106 51 -126 57 l-38 11 0 57 0 57 88 37 c48 20 101
45 117 55 55 36 55 36 55 -149z m-351 124 c90 -63 53 -254 -49 -254 -80 0
-127 116 -84 206 29 62 85 81 133 48z m114 -494 c9 -13 17 -28 17 -32 0 -5
-81 -8 -180 -8 -99 0 -180 3 -180 6 0 3 17 36 39 72 21 37 48 88 59 115 21 47
21 47 60 41 22 -3 48 -2 58 4 17 9 24 0 64 -81 25 -51 53 -103 63 -117z"/>
<path d="M1896 3098 c-56 -90 -89 -184 -90 -263 0 -38 2 -81 6 -95 7 -24 6
-25 -41 -22 -59 5 -100 -14 -137 -64 -30 -39 -42 -113 -30 -179 10 -50 81
-121 130 -131 29 -5 40 -13 51 -39 21 -52 43 -59 174 -51 200 11 228 16 256
44 14 13 25 34 25 46 0 15 12 27 42 41 23 11 56 37 72 58 26 32 31 49 34 106
6 101 -29 161 -112 196 -36 15 -54 15 -108 -1 -16 -5 -18 2 -18 44 0 75 -35
172 -91 256 -82 124 -112 133 -163 54z m173 -148 c32 -68 36 -83 35 -155 0
-59 -7 -101 -27 -160 -28 -82 -39 -234 -17 -220 6 3 10 34 10 68 0 118 36 189
112 221 45 18 46 18 84 0 56 -27 84 -75 84 -141 0 -63 -18 -99 -64 -131 -45
-31 -56 -28 -49 11 3 23 -1 39 -14 56 -17 20 -22 22 -42 12 -35 -19 -56 -91
-27 -91 38 0 63 -74 33 -98 -14 -12 -196 -32 -287 -32 -65 0 -80 11 -80 57 0
26 6 36 25 45 30 13 31 21 8 59 -21 35 -48 46 -70 28 -11 -10 -14 -25 -10 -61
l6 -47 -27 10 c-79 28 -112 75 -112 157 0 144 140 193 234 82 26 -32 66 -143
66 -186 0 -13 5 -24 10 -24 27 0 -5 131 -54 228 -76 148 -68 281 25 427 l32
50 40 -45 c22 -25 56 -79 76 -120z"/>
<path d="M4095 3093 c-74 -93 -114 -185 -122 -276 -5 -65 -9 -77 -22 -73 -53
16 -72 16 -107 1 -21 -9 -47 -23 -58 -33 -50 -45 -72 -165 -42 -235 15 -38 76
-94 111 -103 17 -4 25 -13 25 -28 0 -11 9 -32 19 -45 22 -29 64 -36 253 -46
l136 -8 26 26 c14 14 26 33 26 41 0 9 16 20 39 27 51 15 104 59 125 103 24 51
21 142 -7 191 -35 61 -81 88 -145 83 -44 -4 -52 -2 -48 11 24 87 11 184 -39
289 -73 155 -98 166 -170 75z m129 -77 c69 -139 69 -241 2 -375 -52 -102 -83
-231 -56 -231 6 0 10 11 10 24 0 13 9 53 20 89 32 103 89 157 166 157 29 0 44
-8 75 -39 36 -36 39 -43 39 -95 0 -84 -40 -146 -107 -165 l-30 -9 5 47 c3 34
0 50 -11 60 -22 18 -54 5 -72 -29 -20 -38 -19 -43 8 -55 16 -7 23 -20 25 -46
5 -61 -6 -64 -189 -52 -97 6 -165 15 -174 23 -32 27 -9 100 32 100 21 0 10 58
-16 83 -35 35 -81 -13 -67 -69 8 -30 -8 -31 -48 -5 -46 30 -66 70 -66 129 0
169 175 217 252 69 15 -30 23 -67 26 -125 6 -100 22 -120 22 -25 0 46 -10 101
-31 173 -25 87 -30 116 -25 170 7 76 54 180 111 248 45 52 49 49 99 -52z m91
-586 c3 -5 1 -10 -4 -10 -6 0 -11 5 -11 10 0 6 2 10 4 10 3 0 8 -4 11 -10z"/>
<path d="M2727 1867 c-16 -11 -17 -33 -15 -217 l3 -205 345 0 345 0 3 205 c2
184 1 206 -15 217 -13 10 -96 13 -333 13 -237 0 -320 -3 -333 -13z m643 -207
c0 -129 -3 -170 -12 -170 -7 0 -146 0 -308 -1 l-295 -1 -3 171 -2 171 310 0
310 0 0 -170z"/>
<path d="M2772 1658 l3 -153 285 0 285 0 3 153 3 152 -291 0 -291 0 3 -152z"/>
<path d="M2442 1817 c-31 -33 -29 -80 4 -106 54 -42 118 -13 118 54 0 68 -77
100 -122 52z m76 -50 c3 -23 0 -27 -23 -27 -30 0 -43 24 -25 46 19 22 45 13
48 -19z"/>
<path d="M3579 1821 c-27 -22 -32 -82 -8 -106 45 -46 129 -14 129 49 0 65 -70
99 -121 57z m71 -36 c18 -21 5 -47 -22 -43 -26 3 -37 36 -16 49 18 12 24 11
38 -6z"/>
<path d="M2004 1820 c-62 -13 -137 -54 -172 -94 -95 -109 -43 -236 117 -283
165 -47 372 43 397 173 13 70 -39 149 -122 185 -48 22 -162 32 -220 19z m189
-56 c102 -35 136 -124 76 -197 -118 -143 -439 -108 -439 48 0 60 41 105 127
141 70 28 166 32 236 8z"/>
<path d="M2007 1760 c-140 -36 -200 -139 -124 -215 80 -80 266 -73 357 14 33
32 40 44 40 77 0 49 -20 78 -71 105 -46 23 -147 33 -202 19z m132 -51 c17 -6
31 -15 31 -21 0 -5 5 -6 10 -3 34 21 55 -66 23 -91 -21 -16 -37 -18 -28 -4 3
6 1 10 -5 10 -7 0 -9 -7 -6 -15 6 -15 -4 -21 -63 -40 -18 -5 -22 -4 -16 6 6
11 5 12 -6 2 -7 -7 -25 -13 -39 -13 -14 0 -32 6 -39 13 -11 9 -12 9 -7 0 5
-10 1 -11 -18 -3 -43 16 -66 34 -61 48 3 7 0 10 -5 7 -15 -9 -12 8 6 33 8 12
12 22 7 22 -4 0 7 10 25 21 26 17 35 19 47 9 9 -7 18 -10 22 -6 3 3 0 6 -8 7
-23 1 44 28 72 29 14 0 40 -5 58 -11z"/>
<path d="M2078 1703 c7 -3 16 -2 19 1 4 3 -2 6 -13 5 -11 0 -14 -3 -6 -6z"/>
<path d="M2123 1683 c9 -2 23 -2 30 0 6 3 -1 5 -18 5 -16 0 -22 -2 -12 -5z"/>
<path d="M1970 1676 c0 -2 7 -7 16 -10 8 -3 12 -2 9 4 -6 10 -25 14 -25 6z"/>
<path d="M1950 1660 c12 -8 12 -10 1 -10 -8 0 -12 -2 -9 -5 3 -3 13 -2 22 1
14 5 15 9 4 15 -7 5 -17 9 -23 9 -5 0 -3 -5 5 -10z"/>
<path d="M2020 1650 c0 -5 5 -10 10 -10 6 0 10 5 10 10 0 6 -4 10 -10 10 -5 0
-10 -4 -10 -10z"/>
<path d="M2120 1653 c0 -5 16 -8 35 -9 18 0 32 3 29 8 -6 10 -64 11 -64 1z"/>
<path d="M2190 1619 c0 -5 5 -7 10 -4 6 3 10 8 10 11 0 2 -4 4 -10 4 -5 0 -10
-5 -10 -11z"/>
<path d="M1966 1575 c4 -8 10 -12 15 -9 11 6 2 24 -11 24 -5 0 -7 -7 -4 -15z"/>
<path d="M3940 1815 c-187 -53 -225 -224 -72 -325 98 -65 241 -78 347 -31 64
28 91 54 111 108 14 37 15 50 5 84 -38 128 -231 208 -391 164z m245 -70 c134
-67 141 -181 17 -242 -149 -73 -382 11 -382 137 0 32 7 48 33 76 44 48 95 65
192 62 66 -3 91 -8 140 -33z"/>
<path d="M3965 1761 c-84 -22 -125 -63 -125 -125 0 -33 7 -45 40 -77 91 -87
277 -94 357 -14 88 88 -9 208 -177 220 -36 2 -78 1 -95 -4z m172 -65 c17 -8
33 -23 37 -33 3 -10 13 -29 21 -43 11 -18 15 -20 15 -8 0 9 -7 24 -16 33 -9 9
-14 18 -12 21 3 2 13 -5 23 -16 12 -13 15 -27 11 -45 -8 -33 -22 -32 -35 3
-10 24 -10 12 0 -28 6 -22 -57 -40 -127 -36 -68 4 -148 43 -159 77 -9 28 4 62
21 55 8 -3 13 -2 10 3 -8 12 41 32 61 24 12 -5 14 -3 8 7 -11 18 101 8 142
-14z"/>
<path d="M3970 1685 c7 -8 17 -15 22 -15 5 0 3 7 -6 15 -8 8 -18 15 -22 15 -3
0 -1 -7 6 -15z"/>
<path d="M3930 1660 c-18 -12 -2 -12 25 0 13 6 15 9 5 9 -8 0 -22 -4 -30 -9z"/>
<path d="M4108 1663 c7 -3 16 -2 19 1 4 3 -2 6 -13 5 -11 0 -14 -3 -6 -6z"/>
<path d="M3924 1626 c-10 -8 -16 -18 -11 -22 4 -4 7 -2 7 4 0 7 9 12 19 12 11
0 23 5 26 10 9 15 -18 12 -41 -4z"/>
<path d="M4028 1553 c7 -3 16 -2 19 1 4 3 -2 6 -13 5 -11 0 -14 -3 -6 -6z"/>
<path d="M1582 1737 c-36 -39 -28 -88 19 -113 35 -18 74 -10 94 19 52 74 -52
160 -113 94z m76 -50 c3 -23 0 -27 -21 -27 -29 0 -43 26 -26 47 18 21 44 11
47 -20z"/>
<path d="M4436 1744 c-39 -38 -28 -106 20 -124 75 -29 133 50 83 114 -24 30
-78 36 -103 10z m72 -41 c12 -24 4 -43 -17 -43 -27 0 -42 20 -30 42 12 23 36
23 47 1z"/>
<path d="M2440 1600 c-55 -55 8 -150 81 -120 72 30 51 140 -28 140 -20 0 -41
-8 -53 -20z m75 -50 c0 -18 -6 -26 -23 -28 -27 -4 -40 22 -22 44 19 22 45 13
45 -16z"/>
<path d="M3578 1603 c-38 -44 -28 -102 21 -123 73 -30 136 65 81 120 -25 25
-81 27 -102 3z m72 -38 c17 -20 5 -45 -20 -45 -23 0 -35 22 -26 45 7 19 30 19
46 0z"/>
<path d="M1610 1530 c-11 -11 -20 -33 -20 -49 0 -71 80 -101 127 -47 28 33 29
56 2 90 -26 33 -79 36 -109 6z m75 -50 c0 -18 -6 -26 -23 -28 -27 -4 -40 22
-22 44 19 22 45 13 45 -16z"/>
<path d="M4401 1524 c-12 -15 -21 -33 -21 -40 0 -29 24 -64 52 -73 53 -19 98
15 98 73 0 63 -89 90 -129 40z m79 -29 c17 -20 5 -45 -20 -45 -23 0 -35 22
-26 45 7 19 30 19 46 0z"/>
<path d="M2994 1158 l29 -25 -34 -6 c-19 -3 -47 -11 -64 -17 l-30 -12 35 -13
c19 -8 45 -14 58 -14 12 -1 22 -5 22 -10 0 -13 -29 -41 -42 -41 -6 0 -9 -2 -6
-5 9 -10 138 24 200 52 48 21 57 29 46 38 -21 20 -143 65 -195 72 l-48 6 29
-25z"/>
<path d="M3769 1146 c27 -28 26 -36 -1 -37 -13 0 -41 -6 -63 -13 l-40 -12 50
-18 c28 -10 57 -20 65 -23 12 -4 10 -9 -9 -24 l-23 -19 28 0 c51 0 214 53 214
69 0 17 -126 73 -202 90 l-40 9 21 -22z"/>
<path d="M2213 1142 c15 -9 26 -21 24 -26 -2 -5 -27 -16 -55 -24 -29 -8 -52
-18 -52 -23 0 -4 28 -13 62 -20 l61 -12 -27 -24 c-22 -19 -24 -23 -9 -23 31 0
107 27 174 61 l64 32 -54 24 c-56 25 -161 53 -196 53 -17 -1 -16 -3 8 -18z"/>
<path d="M4528 1105 c38 -28 28 -45 -25 -45 -77 0 -83 -14 -19 -41 31 -12 56
-26 56 -29 0 -4 -15 -14 -32 -23 l-33 -18 71 6 c40 3 102 14 140 26 l68 21
-24 20 c-36 29 -149 84 -190 93 -34 7 -35 6 -12 -10z"/>
<path d="M1449 1088 c39 -21 35 -32 -19 -51 -27 -10 -50 -22 -50 -26 0 -10 49
-21 93 -21 l31 0 -30 -31 -29 -31 30 7 c41 9 165 68 194 92 l25 20 -65 22
c-78 26 -219 41 -180 19z"/>
<path d="M2515 893 c-270 -10 -729 -50 -836 -73 -48 -10 -69 -11 236 10 621
42 1868 37 2428 -11 71 -6 131 -9 133 -6 15 15 -475 60 -826 77 -192 9 -925
11 -1135 3z"/>
<path d="M1598 803 c6 -2 18 -2 25 0 6 3 1 5 -13 5 -14 0 -19 -2 -12 -5z"/>
<path d="M4498 803 c6 -2 18 -2 25 0 6 3 1 5 -13 5 -14 0 -19 -2 -12 -5z"/>
</g>
</svg>
